<?xml version="1.0" encoding="utf-8"?>
<!-- Generator: Adobe Illustrator 21.0.0, SVG Export Plug-In . SVG Version: 6.00 Build 0)  -->
<svg version="1.1" id="Layer_1" xmlns="http://www.w3.org/2000/svg" xmlns:xlink="http://www.w3.org/1999/xlink" x="0px" y="0px"
	 width="32px" height="32px" viewBox="0 0 32 32" style="enable-background:new 0 0 32 32;" xml:space="preserve">
<style type="text/css">
	.st0{fill:#FFFFFF;}
	.st1{fill:none;stroke:#FFFFFF;stroke-width:0.9375;stroke-miterlimit:10;}
</style>
<g>
	<circle cx="16" cy="16" r="16"/>
	<g>
		<path class="st0" d="M16,28.4v-3.6c4.9,0,8.8-4,8.8-8.8h3.6C28.4,22.8,22.8,28.4,16,28.4z"/>
	</g>
	<path class="st1" d="M16,5.4"/>
	<circle class="st0" cx="16" cy="26.6" r="3.5"/>
	<circle cx="16" cy="26.6" r="1.8"/>
	<g>
		
			<image style="overflow:visible;opacity:0.5;" width="35" height="35" xlink:href="95B6723CCC868DAE.png"  transform="matrix(0.24 0 0 0.24 22.5075 12.1875)">
		</image>
		<g>
			<circle class="st0" cx="26.6" cy="16" r="3.5"/>
		</g>
	</g>
	<g>
		<rect x="5.4" y="14.2" class="st0" width="21.2" height="3.6"/>
	</g>
	<circle cx="26.6" cy="16" r="1.8"/>
	<g>
		
			<image style="overflow:visible;opacity:0.5;" width="35" height="36" xlink:href="95B6723CCC868DB2.png"  transform="matrix(0.24 0 0 0.24 1.6275 11.7075)">
		</image>
		<g>
			<circle class="st0" cx="5.4" cy="16" r="3.5"/>
		</g>
	</g>
	<g>
		<path class="st0" d="M7.2,16H3.6C3.6,9.2,9.2,3.6,16,3.6v3.6C11.1,7.2,7.2,11.1,7.2,16z"/>
	</g>
	<g>
		
			<image style="overflow:visible;opacity:0.5;" width="35" height="36" xlink:href="95B6723CCC868DB5.png"  transform="matrix(0.24 0 0 0.24 11.4675 1.1475)">
		</image>
		<g>
			<circle class="st0" cx="16" cy="5.4" r="3.5"/>
		</g>
	</g>
	<circle cx="16" cy="5.4" r="1.8"/>
	<circle cx="5.4" cy="16" r="1.8"/>
</g>
</svg>
