<svg width="16" height="16" viewBox="0 0 16 16" fill="none" xmlns="http://www.w3.org/2000/svg">
<g clip-path="url(#clip0)">
<path d="M7.99833 4.40626C6.0122 4.40626 4.41017 6.00938 4.41017 7.99688C4.41017 9.98438 6.0122 11.5875 7.99833 11.5875C9.98446 11.5875 11.5865 9.98438 11.5865 7.99688C11.5865 6.00938 9.98446 4.40626 7.99833 4.40626ZM7.99833 10.3313C6.71484 10.3313 5.66556 9.28438 5.66556 7.99688C5.66556 6.70938 6.71171 5.66251 7.99833 5.66251C9.28494 5.66251 10.3311 6.70938 10.3311 7.99688C10.3311 9.28438 9.28182 10.3313 7.99833 10.3313V10.3313ZM12.5702 4.25938C12.5702 4.72501 12.1954 5.09688 11.7333 5.09688C11.268 5.09688 10.8963 4.72188 10.8963 4.25938C10.8963 3.79688 11.2711 3.42188 11.7333 3.42188C12.1954 3.42188 12.5702 3.79688 12.5702 4.25938ZM14.9467 5.10938C14.8936 3.98751 14.6375 2.99376 13.8162 2.17501C12.998 1.35626 12.0049 1.10001 10.8838 1.04376C9.72839 0.978131 6.26515 0.978131 5.10969 1.04376C3.99171 1.09688 2.99865 1.35313 2.17734 2.17188C1.35603 2.99063 1.10308 3.98438 1.04687 5.10626C0.981286 6.26251 0.981286 9.72813 1.04687 10.8844C1.09995 12.0063 1.35603 13 2.17734 13.8188C2.99865 14.6375 3.98859 14.8938 5.10969 14.95C6.26515 15.0156 9.72839 15.0156 10.8838 14.95C12.0049 14.8969 12.998 14.6406 13.8162 13.8188C14.6344 13 14.8905 12.0063 14.9467 10.8844C15.0122 9.72813 15.0122 6.26563 14.9467 5.10938V5.10938ZM13.4539 12.125C13.2104 12.7375 12.7388 13.2094 12.1236 13.4563C11.2024 13.8219 9.01638 13.7375 7.99833 13.7375C6.98028 13.7375 4.79116 13.8188 3.87304 13.4563C3.26097 13.2125 2.78942 12.7406 2.54271 12.125C2.17734 11.2031 2.26165 9.01563 2.26165 7.99688C2.26165 6.97813 2.18046 4.78751 2.54271 3.86876C2.78629 3.25626 3.25784 2.78438 3.87304 2.53751C4.79428 2.17188 6.98028 2.25626 7.99833 2.25626C9.01638 2.25626 11.2055 2.17501 12.1236 2.53751C12.7357 2.78126 13.2072 3.25313 13.4539 3.86876C13.8193 4.79063 13.735 6.97813 13.735 7.99688C13.735 9.01563 13.8193 11.2063 13.4539 12.125Z" fill="currentColor"/>
</g>
<defs>
<clipPath id="clip0">
<rect x="1" width="13.9903" height="16" fill="currentColor"/>
</clipPath>
</defs>
</svg>
